<?xml version="1.0" encoding="utf-8"?>
<!-- Generator: Adobe Illustrator 24.3.0, SVG Export Plug-In . SVG Version: 6.00 Build 0)  -->
<svg version="1.1" id="Layer_1" xmlns="http://www.w3.org/2000/svg" xmlns:xlink="http://www.w3.org/1999/xlink" x="0px" y="0px"
	 viewBox="0 0 234.69 254.63" style="enable-background:new 0 0 234.69 254.63;" xml:space="preserve">
<style type="text/css">
	.st0{fill:#342258;}
	.st1{fill:#C5503B;}
	.st2{fill:#F37A82;}
	.st3{fill:#9F2E40;}
	.st4{fill:#3B275E;}
	.st5{fill:#715DA1;}
	.st6{fill:#59467D;}
	.st7{fill:#853121;}
	.st8{fill:#6E5999;}
	.st9{fill:#6C5799;}
	.st10{fill:#58487F;}
	.st11{fill:#C0BEB1;}
	.st12{fill:#FFFFFF;}
	.st13{fill:#863121;}
	.st14{fill:#322159;}
</style>
<g>
	<g>
		<path class="st0" d="M15.73,75.53l11.89,34.11c0.34,0.96,1.24,1.61,2.27,1.61h17.79c1.63,0,2.79-1.59,2.28-3.15l-11.21-34.2
			c-0.32-0.99-1.25-1.66-2.29-1.65l-18.47,0.09C16.33,72.35,15.19,73.97,15.73,75.53z"/>
	</g>
	<g>
		<path class="st0" d="M53.45,104.23L42.24,71.79c-0.61-1.77-2.28-2.96-4.16-2.96H20.1v-1h17.98c2.3,0,4.35,1.46,5.1,3.64
			l11.21,32.43L53.45,104.23z"/>
	</g>
	<g>
		<path class="st1" d="M24.77,76.36c-5.75,0-7.28,9.99-7.28,9.99s-4.46,1.11-3.35,6.35s5.23,27.92,5.23,27.92H35.4l0.95-9.36
			l-5.08-0.16c0,0-2.7-0.16-4.12-4.6c-1.43-4.44-3.17-9.04-3.17-9.04s7.46,0.16,8.57-0.63c1.11-0.79,5.31-6.19,3.09-8.17
			c-2.22-1.98-11.58-3.57-11.58-3.57l1.82-4.26c0,0,10.23,2.35,10.47,1.64C36.59,81.75,34.29,76.36,24.77,76.36z"/>
	</g>
	<g>
		<path class="st2" d="M17.5,118.84h19.65l12.63,30.41c0,0,3.61-25.6,16.06-29.95s10.61,46.8,10.61,46.8S65.5,207.27,55.07,207.5
			c-10.43,0.23-29.38-18.25-36.17-61.06C17.5,122.35,17.5,118.84,17.5,118.84z"/>
	</g>
	<g>
		<path class="st3" d="M56.22,177.79c-0.03-0.19-3.23-19.5-6.9-28.34l0.92-0.38c3.72,8.96,6.93,28.37,6.97,28.57L56.22,177.79z"/>
	</g>
	<g>
		<path class="st4" d="M106.43,16.27c-11.41,2.28-9.52,11.64-15.02,13.75c-5.5,2.12-22.65,9.46-4.03,27.65L146,74.46
			c0,0,13.97-4.44,9.52-9.73c-4.44-5.29-14.6-8.89-9.94-15.66c4.66-6.77,8.04-13.97,1.06-18.41c-6.98-4.44-13.54,1.48-16.08,0.42
			C128.01,30.02,114.89,14.58,106.43,16.27z"/>
	</g>
	<g>
		<ellipse class="st5" cx="82.41" cy="64.57" rx="11.26" ry="15.98"/>
	</g>
	<g>
		<ellipse class="st6" cx="87.38" cy="67.42" rx="7.55" ry="12.45"/>
	</g>
	<g>
		<path class="st1" d="M136.06,109.48v20.54H96v-18.36c0,0,6.88-0.09,7.85-8.46c0.21-1.75,0.16-3.86-0.27-6.4
			c0,0-21.27-3.93-18.8-27.38c1.46-7.58,3.21-7.14,4.08-11.8c0.88-4.66,1.02-9.18,1.02-9.18l5.67-5.06c0,0,0.89,6.37-1.59,8.56
			c-2.47,2.18-0.73,6.84-0.73,6.84s0.59-3.35,2.19-4.95c1.6-1.6,3.64-10.34,4.66-10.2c1.02,0.15,6.7,0.44,11.07-4.37
			c0,0,21.27-1.31,21.27,17.92l-4.37,28.55C128.05,85.73,126.01,108.02,136.06,109.48z"/>
	</g>
	<g>
		<path class="st7" d="M119.23,89.39c-3.32,10.5-15.38,13.81-15.38,13.81c0.21-1.75,0.16-3.86-0.27-6.4
			C114.99,96.36,118.99,89.8,119.23,89.39z"/>
	</g>
	<g>
		<path class="st8" d="M87.78,51.79c1.59-9.83,11.1-17.39,22.6-17.39c12.61,0,22.84,9.09,22.84,20.3c0,1.16-0.12,2.3-0.33,3.41
			l6.53,0.91c0.26-1.41,0.41-2.85,0.41-4.32c0-14.45-13.18-26.17-29.45-26.17c-14.8,0-27.05,9.7-29.13,22.34L87.78,51.79z"/>
	</g>
	<g>
		<ellipse class="st9" cx="135.07" cy="71.57" rx="13.92" ry="15.98"/>
	</g>
	<g>
		<ellipse class="st10" cx="139.24" cy="71.57" rx="7.18" ry="10.69"/>
	</g>
	<g>
		<path class="st11" d="M65.84,119.3c0,0,4.26,24.46,6.96,36.36c2.69,11.89,6.96,37.25,4.94,49.82s-2.47,26.26-2.47,26.26
			s21.54,20.65,74.73,3.37l17.28-6.51c0,0,9.2-32.77,3.37-59.47l-6.28-54.98c0,0-26.92-8.38-29.62-5.31
			c-2.7,3.07-7.45,16.02-16.67,17.23c-9.22,1.21-21.82-1.26-22.19-15.32L65.84,119.3z"/>
	</g>
	<g>
		<path class="st12" d="M79.4,166.62l1.01,19.91c0,0,35.54,22.44,82.68-5.8l-4.79-22.18C158.3,158.55,125.02,184.01,79.4,166.62z"/>
	</g>
	<g>
		<path class="st1" d="M142.59,62.41l13.8,8.68c0,0,13.82,7.49,17.12,14.38c3.3,6.89,11.39,20.22,11.39,20.22l-13.78,7.34
			l-8.09-13.78c0,0-19.62,4.64-16.63-27.41L139.88,66c-1-0.9-1-2.47,0-3.36l0,0C140.64,61.96,141.74,61.87,142.59,62.41z"/>
	</g>
	<g>
		<path class="st2" d="M185.3,103.2l-18.17,9.56l1.16,3.96c0,0-2.33-5.59-6.06-1.16c-3.73,4.43-20.27,24.23,6.52,50.78
			s41.7,33.08,51.01,19.33c9.32-13.74,0-27.72,0-27.72L185.3,103.2z"/>
	</g>
	<g>
		
			<rect x="177.58" y="115.03" transform="matrix(0.9421 -0.3353 0.3353 0.9421 -38.0448 68.0631)" class="st3" width="1" height="58.35"/>
	</g>
	<g>
		<path class="st13" d="M100.38,75.01c-2.68,0-4.26-0.64-4.81-1.95c-1.4-3.32,5.17-9.32,5.92-10c0.2-0.18,0.52-0.17,0.71,0.04
			c0.18,0.21,0.17,0.52-0.04,0.71c-1.9,1.7-6.62,6.61-5.67,8.86c0.45,1.06,2.28,1.5,5.3,1.28c0.27-0.02,0.51,0.19,0.54,0.46
			c0.02,0.28-0.19,0.51-0.46,0.54C101.34,74.99,100.84,75.01,100.38,75.01z"/>
	</g>
	<g>
		<path class="st13" d="M101.59,82.94c-3.69,0-6.55-1.86-6.59-1.89c-0.23-0.15-0.29-0.46-0.14-0.69c0.15-0.23,0.46-0.29,0.69-0.14
			c0.29,0.19,7.17,4.64,13.06-1.39c0.19-0.2,0.51-0.2,0.71-0.01c0.2,0.19,0.2,0.51,0.01,0.71C106.76,82.15,104,82.94,101.59,82.94z"
			/>
	</g>
	<g>
		<path class="st14" d="M113.79,67.63c-1.67,0-3-0.37-3.96-1.1c-0.66-0.51-1.01-1.09-1.18-1.52l-0.98,0.45l-0.41-0.91l2.13-0.97
			l0.08,0.69c0,0.03,0.12,0.83,1,1.49c1.12,0.84,2.99,1.08,5.42,0.7l0.15,0.99C115.24,67.56,114.48,67.63,113.79,67.63z"/>
	</g>
	<g>
		<path class="st14" d="M94.82,64.18c-0.39,0-0.75-0.08-1.08-0.24c-1.11-0.55-1.47-1.85-1.59-2.56h-1.27v-1h2.19l0.02,0.48
			c0,0.02,0.1,1.7,1.09,2.18c0.72,0.36,1.85,0.02,3.27-0.97l0.57,0.82C96.8,63.75,95.72,64.18,94.82,64.18z"/>
	</g>
	<g>
		<path class="st14" d="M122.22,60.28c-0.3,0-0.6-0.14-0.8-0.4c-4.25-5.59-12.18-4.1-12.26-4.08c-0.54,0.11-1.07-0.24-1.18-0.79
			c-0.11-0.54,0.24-1.07,0.78-1.18c0.37-0.08,9.23-1.76,14.24,4.84c0.33,0.44,0.25,1.07-0.19,1.4
			C122.64,60.21,122.43,60.28,122.22,60.28z"/>
	</g>
	<g>
		<path class="st14" d="M90.87,58.68c-0.13,0-0.27-0.03-0.4-0.09c-0.51-0.22-0.73-0.81-0.51-1.32c1.03-2.32,2.53-3.81,4.48-4.44
			c3.28-1.06,6.53,0.82,6.67,0.9c0.48,0.28,0.63,0.89,0.36,1.37c-0.28,0.47-0.89,0.63-1.37,0.36c-0.04-0.02-2.65-1.51-5.05-0.72
			c-1.37,0.45-2.47,1.57-3.25,3.34C91.62,58.46,91.26,58.68,90.87,58.68z"/>
	</g>
</g>
</svg>
