<?xml version="1.0" encoding="utf-8"?>
<!-- Generator: Adobe Illustrator 24.3.0, SVG Export Plug-In . SVG Version: 6.00 Build 0)  -->
<svg version="1.1" id="Layer_28" xmlns="http://www.w3.org/2000/svg" xmlns:xlink="http://www.w3.org/1999/xlink" x="0px" y="0px"
	 viewBox="0 0 338.82 420.94" style="enable-background:new 0 0 338.82 420.94;" xml:space="preserve">
<style type="text/css">
	.st0{fill:#080808;}
	.st1{fill:#3B1E30;}
	.st2{fill:#7C4844;}
	.st3{fill:#FFFFFF;}
	.st4{fill:#F8F5BB;}
	.st5{fill:#F1CF85;}
	.st6{fill:#34182B;}
	.st7{fill:#EF9D5D;}
	.st8{fill:#F04F50;}
	.st9{fill:#EF4C44;}
	.st10{fill:#9F1D21;}
	.st11{fill:#198AAD;}
	.st12{fill:#F9F6BD;}
	.st13{fill:#CCAE52;}
	.st14{fill:#D6D793;}
	.st15{fill:#DFB356;}
	.st16{fill:#566B5B;}
	.st17{fill:#5A1E2D;}
	.st18{fill:#17879F;}
	.st19{fill:#37223B;}
	.st20{fill:#E55043;}
	.st21{fill:#0A5465;}
	.st22{fill:#18555C;}
	.st23{fill:#071A26;}
	.st24{fill:#207588;}
	.st25{fill:#FFF0E7;}
	.st26{fill:#39172E;}
	.st27{fill:#DD3940;}
	.st28{fill:#EE2933;}
	.st29{fill:#117F99;}
	.st30{fill:#3A1930;}
	.st31{fill:#F04F49;}
	.st32{fill:#371C33;}
	.st33{fill:#C73D44;}
	.st34{fill:#C43E3A;}
	.st35{fill:#0E7B90;}
	.st36{fill:#25222D;}
	.st37{fill:none;stroke:#080808;stroke-miterlimit:10;}
	.st38{fill:#027A94;}
	.st39{fill:#CDECF7;}
	.st40{fill:#EF3D41;}
	.st41{fill:#2B1C2A;}
	.st42{fill:#B21F24;}
	.st43{fill:#341429;}
	.st44{fill:#773F57;}
	.st45{fill:#30160C;}
	.st46{fill:#CBA48B;}
	.st47{fill:#F4A463;}
	.st48{fill:#CD5D3D;}
	.st49{fill:#F89A5F;}
	.st50{fill:#FAF6BD;}
	.st51{fill:#E1D084;}
	.st52{fill:#3D2038;}
	.st53{fill:#2D152A;}
	.st54{fill:#381C34;}
</style>
<g>
	<g>
		<path class="st0" d="M228.61,338.84c-0.55-0.19-55.29-18.99-96.32-6.53l-0.29-0.96c41.35-12.55,96.39,6.35,96.94,6.54
			L228.61,338.84z"/>
	</g>
	<g>
		<polygon class="st1" points="225.06,297.72 198.97,391.73 303.31,391.73 274.66,289.61 		"/>
	</g>
	<g>
		<path class="st2" d="M251.62,305.75c-8.83,0-15.99,6.41-15.99,14.32c0,7.91,7.16,14.32,15.99,14.32c8.83,0,15.99-6.41,15.99-14.32
			C267.62,312.16,260.46,305.75,251.62,305.75z M251.62,325.64c-3.44,0-6.23-2.5-6.23-5.58s2.79-5.58,6.23-5.58s6.23,2.5,6.23,5.58
			S255.07,325.64,251.62,325.64z"/>
	</g>
	<g>
		<path class="st2" d="M251,341.57c-12.28,0-22.23,8.1-22.23,18.09c0,9.99,9.95,18.09,22.23,18.09c12.28,0,22.23-8.1,22.23-18.09
			C273.22,349.67,263.27,341.57,251,341.57z M250.92,368.04c-5.55,0-10.04-3.45-10.04-7.71c0-4.26,4.5-7.71,10.04-7.71
			c5.55,0,10.04,3.45,10.04,7.71C260.96,364.59,256.46,368.04,250.92,368.04z"/>
	</g>
	<g>
		<polygon class="st3" points="269.94,304.06 262.42,308.32 265.59,308.87 254.55,313.57 260.95,317.66 252.98,319.97 
			265.88,319.44 260.64,313.88 269.76,309.48 266.19,307.51 		"/>
	</g>
	<g>
		<polygon class="st3" points="198.6,332.95 218.75,347.06 221.67,335.88 234.45,351.76 236.67,346.88 250.42,366.49 237.29,353.09 
			234.72,359.21 224.51,344.93 222.38,354.6 		"/>
	</g>
	<g>
		<path class="st4" d="M139.66,82.25c0-0.01-44.18-14.68-46.4-23.13c-0.17-0.65-0.33-1.29-0.47-1.94
			c-1.58-7.02-2.45-14.56-1.52-21.72c0.43-3.28,1.27-6.77,3.35-9.42c0.95-1.2,2.16-2.13,3.5-2.85c2.46-1.32,5.38-1.94,8.04-2.27
			c3.16-0.39,6.06-0.01,8.69,0.96c5.98,2.19,10.62,7.36,13.84,13.26c5.08,9.32,7.56,20.03,9.21,30.44c0.62,3.95,1.1,7.94,1.44,11.93
			c0.02,0.18,0.04,1.62,0.1,2.87C139.49,81.36,139.55,82.21,139.66,82.25z"/>
	</g>
	<g>
		<path class="st5" d="M139.44,80.38l-1.61-0.3l-22.98-58.2c5.98,2.19,10.62,7.36,13.84,13.26c5.08,9.32,7.56,20.03,9.21,30.44
			c0.62,3.95,1.1,7.94,1.44,11.93C139.36,77.69,139.38,79.13,139.44,80.38z"/>
	</g>
	<g>
		<path class="st5" d="M91.77,52.33c0,0,12.57,8.46,13.37,10.92c0.81,2.46,0,0,0,0L93.08,58.4L91.77,52.33z"/>
	</g>
	<g>
		<path class="st6" d="M110.81,32.06c-10.46,2.72-10.56,17.31-5.67,31.19l18.87,17.89l13.3-1.08c0,0-3.03-30.31-8.9-38.92
			C122.55,32.55,118.34,30.11,110.81,32.06z"/>
	</g>
	<g>
		<path class="st7" d="M129.09,51.5c0,1.91-1.11,7.71-1.11,7.71v15.8l-13.24-6.22v-3.64c-4.05-2.97-6.77-8.32-6.77-8.32
			c-3.82-0.17-4.59-3.53-4.3-5.33c0.3-1.8,2.15-2.23,2.15-2.23c-0.19-1.94-0.11-3.68,0.17-5.24c0.16-0.95,0.4-1.84,0.67-2.65
			c1.82-5.29,5.62-7.76,5.62-7.76c6.23-1.23,10.06,1.38,12.33,4.26c2.2,2.8,2.93,5.84,2.93,5.84c0.74-1.06,3.18-1.55,3.75,0.98
			C131.86,50.11,129.09,51.5,129.09,51.5z"/>
	</g>
	<g>
		<path class="st8" d="M127.98,59.21v15.8l-13.24-6.22v-0.43c0-0.75,0-2.46,0-3.21c0-0.23,4.7,1.12,4.64,0.71
			C125.23,65.34,127.98,59.21,127.98,59.21z"/>
	</g>
	<g>
		<path class="st9" d="M119.38,65.86c-1.37,0.13-2.92-0.06-4.64-0.71c-4.05-2.97-6.77-8.32-6.77-8.32c-3.82-0.17-4.59-3.53-4.3-5.33
			c0.3-1.8,2.15-2.23,2.15-2.23c-0.19-1.94-0.11-3.68,0.17-5.24c2.42,0.53,7.72,1.99,8.35,4.74c0.81,3.59-0.16,5.3-0.49,6.36
			c-0.33,1.06,3.64,0.49,3.64,0.49s-0.05,3.02,1.01,4.08C119.37,60.56,119.12,64.04,119.38,65.86z"/>
	</g>
	<g>
		<path class="st9" d="M124.61,37.88c-0.29-0.36-1.55-0.61-2.01-0.77c-0.77-0.26-1.55-0.48-2.35-0.65
			c-1.62-0.35-3.29-0.51-4.94-0.35c-3.72,0.37-6.17,2.63-8.62,5.25c0.21-0.23,0.31-0.86,0.43-1.16c0.19-0.45,0.4-0.89,0.63-1.32
			c0.44-0.83,0.96-1.62,1.54-2.35c0.58-0.74,1.22-1.42,1.92-2.05c3.01-2.69,8.73-0.85,11.44,1.38
			C123.38,36.46,124.03,37.14,124.61,37.88z"/>
	</g>
	<g>
		<path class="st10" d="M114.74,65.15c0,0,1.54,1.08,4.64,0.71c2.67-0.32,5.75-1.57,8.6-6.65v2.09c0,0-2.82,5.79-6.39,7.43
			S114.74,65.15,114.74,65.15z"/>
	</g>
	<g>
		<g>
			<path class="st3" d="M121.59,52.53c-0.96,0-1.92-0.23-2.77-0.67c-2.07-1.04-3.35-3.13-3.35-5.46c0-3.37,2.75-6.12,6.12-6.12
				c1.62,0,3.15,0.63,4.31,1.76c1.17,1.16,1.82,2.71,1.82,4.36C127.72,49.79,124.97,52.53,121.59,52.53z"/>
		</g>
		<g>
			<path class="st0" d="M121.59,40.79c1.54,0,2.94,0.62,3.96,1.62c1.03,1.02,1.67,2.44,1.67,4c0,3.11-2.52,5.62-5.63,5.62
				c-0.91,0-1.78-0.22-2.54-0.61c-1.83-0.92-3.08-2.82-3.08-5.01C115.97,43.3,118.49,40.79,121.59,40.79 M121.59,39.79
				c-3.65,0-6.62,2.97-6.62,6.62c0,2.52,1.39,4.78,3.63,5.9c0.91,0.47,1.95,0.72,2.99,0.72c3.66,0,6.63-2.97,6.63-6.62
				c0-1.78-0.7-3.45-1.97-4.71C125,40.47,123.35,39.79,121.59,39.79L121.59,39.79z"/>
		</g>
	</g>
	<g>
		<g>
			<path class="st3" d="M108.36,55.12c-0.92,0-1.84-0.21-2.65-0.61c-2.1-1-3.47-3.17-3.47-5.51c0-3.38,2.75-6.13,6.12-6.13
				c1.53,0,2.98,0.57,4.1,1.59c1.28,1.15,2.02,2.8,2.02,4.54C114.48,52.38,111.74,55.12,108.36,55.12z"/>
		</g>
		<g>
			<path class="st0" d="M108.36,43.37c1.45,0,2.77,0.55,3.76,1.46c1.14,1.02,1.86,2.51,1.86,4.17c0,3.1-2.52,5.62-5.62,5.62
				c-0.87,0-1.7-0.2-2.43-0.56c-1.89-0.9-3.19-2.83-3.19-5.06C102.74,45.89,105.25,43.37,108.36,43.37 M108.36,42.37
				c-3.65,0-6.62,2.97-6.62,6.63c0,2.53,1.48,4.88,3.76,5.96c0.87,0.43,1.86,0.66,2.86,0.66c3.65,0,6.62-2.97,6.62-6.62
				c0-1.88-0.8-3.67-2.19-4.92C111.59,42.98,110.02,42.37,108.36,42.37L108.36,42.37z"/>
		</g>
	</g>
	<g>
		<path class="st11" d="M127.22,46.41c0,3.11-2.52,5.62-5.63,5.62c-0.91,0-1.78-0.22-2.54-0.61l6.5-9.01
			C126.58,43.43,127.22,44.85,127.22,46.41z"/>
	</g>
	<g>
		<path class="st11" d="M113.98,49c0,3.1-2.52,5.62-5.62,5.62c-0.87,0-1.7-0.2-2.43-0.56l6.19-9.23
			C113.26,45.85,113.98,47.34,113.98,49z"/>
	</g>
	<g>
		<path class="st12" d="M184.73,97.69c1.44,7.3,0.37,16.82-1.03,24.38c-1.33,7.24-2.96,12.69-2.96,12.69l-81.28,15.62l-28-6.59
			l-7.48-1.76l-11.82-2.78l-23.33-5.49c0,0-3.36-0.71-6.72-4.44c-0.63-0.69-1.25-1.49-1.86-2.41c-0.61-0.91-1.19-1.95-1.73-3.12
			c-3.99-8.65,5.49-26.26,16.29-39.39c10.8-13.13,34.38-29.41,41.55-29.78c16.79-0.85,34.57,11.49,34.57,11.49l12.97,14.46
			l4.65-5.31c10.65,3.22,18.37,10.9,23.29,17.46c4.46,5.94,6.63,10.96,6.63,10.96c0.55-1.06,1.18-2.05,1.84-2.97
			c4.16-5.75,9.96-8.83,9.96-8.83l4.49-9.64c6.81-0.5,12.13,4.48,12.13,4.48L184.73,97.69z"/>
	</g>
	<g>
		<path class="st13" d="M151.84,92.72c4.46,5.94,6.63,10.96,6.63,10.96c-10.37,13.86-13.17,33.37-13.17,33.37
			c-3.21-4.74,3.22-24.21,5.08-29.91c1.86-5.71,0.51-5.98,0.51-9.87C150.89,96.59,151.25,94.96,151.84,92.72z"/>
	</g>
	<g>
		<path class="st14" d="M183.7,122.07c-1.33,7.24-2.96,12.69-2.96,12.69l-81.28,15.62l-28-6.59l-7.48-1.76l29.74-31.01
			c0,0,46.12,24.6,50.61,25.14C147.64,136.55,171.46,127.06,183.7,122.07z"/>
	</g>
	<g>
		<path class="st15" d="M115.97,145.23c-0.05,0-0.09-0.01-0.14-0.02c-0.27-0.08-0.42-0.35-0.34-0.62
			c0.12-0.41,11.69-41.59,7.92-63.94c-0.05-0.27,0.14-0.53,0.41-0.58c0.27-0.04,0.53,0.14,0.58,0.41
			c3.81,22.58-7.82,63.97-7.94,64.38C116.39,145.09,116.19,145.23,115.97,145.23z"/>
	</g>
	<g>
		<path class="st16" d="M138.9,112.7c-0.15,0-0.29-0.06-0.39-0.19c-0.14-0.18-14.19-17.71-13.49-33.81
			c0.01-0.28,0.26-0.48,0.52-0.48c0.28,0.01,0.49,0.25,0.48,0.52c-0.69,15.72,13.13,32.96,13.27,33.14c0.17,0.21,0.14,0.53-0.07,0.7
			C139.12,112.66,139.01,112.7,138.9,112.7z"/>
	</g>
	<g>
		<path class="st16" d="M125.47,116.22c-0.14,0-0.29-0.06-0.38-0.18c-0.34-0.41-8.31-10.19-5.91-21.16
			c2.34-10.68,2.67-15.3,2.68-15.35c0.02-0.27,0.25-0.48,0.53-0.46c0.28,0.02,0.48,0.26,0.46,0.53c-0.01,0.19-0.34,4.72-2.7,15.49
			c-2.3,10.49,5.62,20.21,5.7,20.31c0.18,0.21,0.15,0.53-0.07,0.7C125.69,116.18,125.58,116.22,125.47,116.22z"/>
	</g>
	<g>
		<polyline class="st17" points="174.76,82.24 170.27,91.88 184.73,97.69 186.89,86.73 174.76,82.24 		"/>
	</g>
	<g>
		<path class="st18" d="M178.4,289.41c0,0-7.56,14.73-16.18,31.84c-8.62,17.11-23.21,28.52-23.21,28.52s-2.92,8.49-3.45,10.08
			c-0.53,1.59-2.39,1.46-2.39,1.46l-2.39,8.22h-20.96l3.85-13l-1.54-1.35l4.27-12.68c-15.61-19.26-0.24-59.26,4.63-67.79
			c4.88-8.54,6.34-17.32,6.34-22.19c0-2.49-7.91-16.86-15.66-30.37c-2.61-4.55-5.21-9-7.48-12.87c-2.27-3.86-4.22-7.13-5.53-9.34
			c-1.14-1.91-1.81-3.02-1.81-3.02l26.05-4.73l38.35-6.96c0,0,2.52,5.72,6.31,15.31c3.42,8.66,7.88,20.48,12.43,34.08
			C189.62,263.26,178.4,289.41,178.4,289.41z"/>
	</g>
	<g>
		<path class="st19" d="M139.01,349.77c0,0-2.92,8.49-3.45,10.08c-0.53,1.59-2.39,1.46-2.39,1.46l-2.39,8.22h-20.96l3.85-13
			l-1.54-1.35l4.27-12.68C129.08,354,139.01,349.77,139.01,349.77z"/>
	</g>
	<g>
		<path class="st20" d="M133.17,361.31l-2.39,8.22h-20.96l3.85-13C126.93,362.07,133.17,361.31,133.17,361.31z"/>
	</g>
	<g>
		<path class="st21" d="M178.4,289.41c0,0-7.56,14.73-16.18,31.84c-8.62,17.11-23.21,28.52-23.21,28.52
			c-26.34,2.56-20.79-38.72-19.5-47.11c1.29-8.4,13.56-40.03,12.63-54.23c-0.58-8.79-11.89-19.43-20.43-26.28
			c-7.48-13.02-14.82-25.23-14.82-25.23l64.4-11.69c0,0,9.15,20.75,18.74,49.39C189.62,263.26,178.4,289.41,178.4,289.41z"/>
	</g>
	<g>
		<path class="st22" d="M114,356.52c-0.06,0-0.11-0.01-0.17-0.03c-0.26-0.09-0.4-0.38-0.3-0.64l4.16-11.67
			c0.09-0.26,0.38-0.4,0.64-0.3c0.26,0.09,0.4,0.38,0.3,0.64l-4.16,11.67C114.39,356.39,114.2,356.52,114,356.52z"/>
	</g>
	<g>
		<path class="st22" d="M117.02,357.81c-0.06,0-0.12-0.01-0.17-0.03c-0.26-0.09-0.39-0.38-0.3-0.64l3.98-10.88
			c0.1-0.26,0.38-0.39,0.64-0.3c0.26,0.09,0.39,0.38,0.3,0.64l-3.98,10.88C117.41,357.69,117.22,357.81,117.02,357.81z"/>
	</g>
	<g>
		<path class="st22" d="M120,358.84c-0.06,0-0.12-0.01-0.19-0.04c-0.26-0.1-0.38-0.39-0.28-0.65l3.98-9.95
			c0.1-0.26,0.39-0.38,0.65-0.28c0.26,0.1,0.38,0.39,0.28,0.65l-3.98,9.95C120.39,358.72,120.2,358.84,120,358.84z"/>
	</g>
	<g>
		<path class="st22" d="M124.42,360.15c-0.06,0-0.12-0.01-0.19-0.04c-0.26-0.1-0.38-0.39-0.28-0.65l3.98-9.95
			c0.1-0.26,0.39-0.38,0.65-0.28c0.26,0.1,0.38,0.39,0.28,0.65l-3.98,9.95C124.8,360.03,124.62,360.15,124.42,360.15z"/>
	</g>
	<g>
		<path class="st22" d="M128.3,361.02c-0.06,0-0.13-0.01-0.19-0.04c-0.25-0.11-0.38-0.4-0.27-0.65l3.98-9.53
			c0.11-0.25,0.4-0.38,0.65-0.27c0.25,0.11,0.38,0.4,0.27,0.65l-3.98,9.53C128.68,360.9,128.5,361.02,128.3,361.02z"/>
	</g>
	<g>
		<path class="st22" d="M131.87,361.02c-0.06,0-0.13-0.01-0.19-0.04c-0.25-0.11-0.38-0.4-0.27-0.65l3.98-9.53
			c0.11-0.26,0.4-0.38,0.65-0.27c0.25,0.11,0.38,0.4,0.27,0.65l-3.98,9.53C132.25,360.9,132.07,361.02,131.87,361.02z"/>
	</g>
	<g>
		<path class="st23" d="M167.6,200.54l-63.37,8.74c-2.27-3.86-4.22-7.13-5.53-9.34l24.24-7.75l38.35-6.96
			C161.29,185.23,163.81,190.95,167.6,200.54z"/>
	</g>
	<g>
		<path class="st24" d="M129.05,349.93l-0.9-0.45c0.02-0.04,2.48-5.07,22.96-51.97c20.41-46.76-14.62-102.5-14.97-103.06l0.84-0.54
			c0.36,0.56,35.68,56.75,15.05,104C131.5,344.94,129.08,349.88,129.05,349.93z"/>
	</g>
	<g>
		<path class="st25" d="M169.4,394.69c-0.01,0-0.01,0.01-0.01,0.01c-0.37,3.7-2.58,6.79-9.01,8.57c-9.8,2.72-26.88-2.71-29.59-3.15
			c-2.72-0.44-6.83-1.4-9.9,1.58c-3.06,2.97-22.42,1.57-21.01-6.05c0,0,0.08-0.28,0.21-0.76c0.65-2.44,2.65-10.03,2.5-11.85
			c-0.17-2.19,0.35-9.89,2.54-12.17c2.19-2.27-0.61-7.97-3.42-7.44c0,0,0.01,0,0.02-0.01c0.26-0.16,2.88-1.72,4.54-1.3
			c1.75,0.43,2.89,4.2,2.27,6.21c0,0,16.9-2.45,22.33-1.66c0,0,1.05-2.02,4.91-2.37c3.85-0.35,4.46,1.76,4.46,1.76
			s2.63,18.74,19.79,17.16c0,0,0.6-0.09,1.49-0.06c2.23,0.06,6.27,0.81,7.27,5.31C169.27,390.64,169.59,392.75,169.4,394.69z"/>
	</g>
	<g>
		<path class="st26" d="M162.22,388.82c-1.31,3.33-13.4,0.97-13.4,0.97s0.36,0.61-3.32,3.94c-3.68,3.32-18.83-7.62-24.35-11.12
			c-5.51-3.51-16.2-1.67-16.2-1.67c-0.87-1.49,2.63-8.84,2.28-13.75c-0.34-4.71-5.12-3.84-5.5-3.77c0.26-0.16,2.88-1.72,4.54-1.3
			c1.75,0.43,2.89,4.2,2.27,6.21c0,0,16.9-2.45,22.33-1.66c0,0,1.05-2.02,4.91-2.37c3.85-0.35,4.46,1.76,4.46,1.76
			s2.63,18.74,19.79,17.16c0,0,0.6-0.09,1.49-0.06C162.27,384.71,162.97,386.93,162.22,388.82z"/>
	</g>
	<g>
		<path class="st27" d="M169.39,394.7c-0.37,3.7-2.58,6.79-9.01,8.57c-9.8,2.72-26.88-2.71-29.59-3.15c-2.72-0.44-6.83-1.4-9.9,1.58
			c-3.06,2.97-22.42,1.57-21.01-6.05c0,0,0.08-0.28,0.21-0.76c0,0,8.54,8.38,20.28,3.39c11.73-4.99,11.12-0.35,15.06,0.53
			C139.37,399.68,164.39,403.99,169.39,394.7z"/>
	</g>
	<g>
		<path class="st28" d="M160.73,389c-27.58,2.8-29.86-22.33-29.86-22.33s1.05-2.02,4.91-2.37c3.85-0.35,4.46,1.76,4.46,1.76
			s2.63,18.74,19.79,17.16C162.05,386.63,160.73,389,160.73,389z"/>
	</g>
	<g>
		<polygon class="st3" points="151.71,389.68 150.81,389.4 150.37,381.33 144.2,387.19 143.36,386.73 144.99,378.3 136.78,382.31 
			136.14,381.59 140.24,375.07 141.08,375.61 137.92,380.64 145.45,376.96 146.16,377.5 144.64,385.39 150.47,379.86 151.31,380.2 
			151.74,387.98 156.18,382.06 156.98,382.66 		"/>
	</g>
	<g>
		<path class="st3" d="M141.02,375.69l-0.86-0.3c-0.09-0.89-0.83-8.8,1.31-11.02c0.43-0.44,0.95-0.67,1.54-0.62l0,0
			c1.78,0.11,2.89,0.72,3.31,1.81C147.58,368.8,141.69,374.99,141.02,375.69z M142.88,364.74c-0.26,0-0.48,0.1-0.69,0.32
			c-1.33,1.38-1.31,6.31-1.12,9.1c1.95-2.19,5.08-6.29,4.32-8.25c-0.27-0.69-1.09-1.09-2.44-1.17l0,0
			C142.93,364.75,142.9,364.74,142.88,364.74z"/>
	</g>
	<g>
		<path class="st3" d="M145.27,376.48c-1.38,0-2.98-0.21-4.73-0.65l-0.29-0.78c0.15-0.21,3.68-5.06,6.97-5.14
			c1.09-0.04,1.98,0.43,2.73,1.36c0.82,1.03,0.93,2.29,0.28,3.3C149.43,375.83,147.67,376.48,145.27,376.48z M141.53,375.03
			c4.65,1.02,7.1,0.18,7.86-1c0.41-0.65,0.33-1.45-0.22-2.14l0,0c-0.54-0.68-1.15-1.02-1.92-0.99
			C145.07,370.96,142.56,373.77,141.53,375.03z"/>
	</g>
	<g>
		<path class="st29" d="M130.99,381.33l-1.87,1.84c-0.72,0.7-0.67,1.87,0.1,2.52c2.46,2.08,7.77,6.13,12.83,7.09
			c0.64,0.12,1.3-0.12,1.7-0.64l0.42-0.55c0.64-0.84,0.38-2.05-0.55-2.54c-2.73-1.43-7.84-4.39-10.05-7.51
			C132.95,380.7,131.73,380.6,130.99,381.33z"/>
	</g>
	<g>
		<path class="st30" d="M149.82,392.03l-1.49,1.74c-0.46,0.54-0.1,1.37,0.61,1.41c3.05,0.17,9.37,0.09,11.79-3.12
			c0,0-7.53,0.88-9.92-0.26C150.48,391.64,150.07,391.74,149.82,392.03z"/>
	</g>
	<g>
		<path class="st19" d="M184.9,225.56c0,0-3.03,8.41-5,13.14c-1.52,3.65-2.49,3.94-2.86,3.87h-0.02l-0.12-0.05l-0.02-0.01v12.61
			c-16.42-1.45-21.28-12.48-21.28-12.48l3.3-8.02l7.47-18.12L184.9,225.56z"/>
	</g>
	<g>
		<path class="st31" d="M176.88,242.51v12.61c-16.42-1.45-21.28-12.48-21.28-12.48l3.3-8.02
			C163.36,240.41,176.88,242.51,176.88,242.51z"/>
	</g>
	<g>
		<path class="st22" d="M161.36,235.82c-0.06,0-0.13-0.01-0.19-0.04c-0.25-0.11-0.38-0.4-0.27-0.65l5.1-12.16
			c0.11-0.25,0.4-0.37,0.65-0.27c0.25,0.11,0.38,0.4,0.27,0.65l-5.1,12.16C161.74,235.7,161.55,235.82,161.36,235.82z"/>
	</g>
	<g>
		<path class="st22" d="M163.7,238.16c-0.06,0-0.13-0.01-0.19-0.04c-0.25-0.11-0.38-0.4-0.27-0.65l5.1-12.16
			c0.11-0.25,0.4-0.37,0.65-0.27c0.25,0.11,0.38,0.4,0.27,0.65l-5.1,12.16C164.08,238.04,163.89,238.16,163.7,238.16z"/>
	</g>
	<g>
		<path class="st22" d="M166.86,239.75c-0.07,0-0.14-0.01-0.2-0.04c-0.25-0.11-0.37-0.41-0.25-0.66l5.06-11.39
			c0.11-0.25,0.41-0.37,0.66-0.25c0.25,0.11,0.37,0.41,0.25,0.66l-5.06,11.39C167.23,239.64,167.05,239.75,166.86,239.75z"/>
	</g>
	<g>
		<path class="st22" d="M170.59,241.13c-0.07,0-0.14-0.01-0.2-0.04c-0.25-0.11-0.37-0.41-0.25-0.66l5.06-11.39
			c0.11-0.25,0.41-0.37,0.66-0.25c0.25,0.11,0.37,0.41,0.25,0.66l-5.06,11.39C170.97,241.02,170.78,241.13,170.59,241.13z"/>
	</g>
	<g>
		<path class="st22" d="M174.95,242.01c-0.07,0-0.14-0.01-0.2-0.04c-0.25-0.11-0.37-0.41-0.25-0.66l5.05-11.39
			c0.11-0.25,0.41-0.37,0.66-0.25s0.37,0.41,0.25,0.66l-5.05,11.39C175.33,241.9,175.14,242.01,174.95,242.01z"/>
	</g>
	<g>
		<path class="st25" d="M189.13,294.21c-1.93,1.02-3.76,1.8-5.49,2.35h-0.01c-19.48,6.27-26.18-14.93-26.18-16.67
			c0-1.91-1.34-4.7-1.34-4.7h-4.48c-1.56-1.12-8.05-8.62-9.06-11.87c-1.01-3.24,0-6.83,1.56-8.17c1.57-1.34,5.83-9.29,7.1-13.54
			c1.19-3.97,3.14-3.55,3.4-3.48l0.03,0.01c0.67-4.03-5.04-4.11-3.14-4.7c6.05-1.91,5.71,4.92,5.71,4.92l-1.79,4.25
			c0.22,2.8,9.07,9.07,9.07,9.07l0.78-3.25c3.02,0.12,14.66,0.45,14.66,0.45c-5.26,16.56,6.26,29.87,8.72,34.91l0.01,0.01
			c0.21,0.44,0.39,0.88,0.54,1.32C190.81,289.73,189.13,294.21,189.13,294.21z"/>
	</g>
	<g>
		<path class="st32" d="M189.22,285.12c-7.19-0.82-13.3,2.6-13.3,2.6l-5.37-8.84l-4.52,0.78c-7.64-4.14-10.48-20.82-10.37-25.74
			c0.12-4.93-5.03-6.38-5.03-6.38c1-0.34,1.56-2.8,2.26-4.81c0.69-2.02,1.77-4.59,1.77-4.59c0.67-4.03-5.04-4.11-3.14-4.7
			c6.05-1.91,5.71,4.92,5.71,4.92l-1.79,4.25c0.22,2.8,9.07,9.07,9.07,9.07l0.78-3.25c3.02,0.12,14.66,0.45,14.66,0.45
			c-5.26,16.57,6.27,29.89,8.73,34.92C188.89,284.24,189.07,284.68,189.22,285.12z"/>
	</g>
	<g>
		<path class="st33" d="M183.63,296.56c-19.48,6.27-26.18-14.93-26.18-16.67c0-1.91-1.34-4.7-1.34-4.7h-4.48
			c-1.56-1.12-8.05-8.62-9.06-11.87c-1.01-3.24,0-6.83,1.56-8.17c0,0-0.68,3.25,0,4.7c0.68,1.46,6.61,12.76,9.63,12.87
			c3.02,0.11,5.82,1.01,5.93,4.14C159.8,280,163.58,296.45,183.63,296.56z"/>
	</g>
	<g>
		<path class="st34" d="M188.67,283.79c-7.13-0.55-11.96,1.58-11.96,1.58c-13.99-15.11-12.2-33.69-12.2-33.69l0.78-3.25
			c3.02,0.12,14.66,0.45,14.66,0.45C174.69,265.44,186.21,278.75,188.67,283.79z"/>
	</g>
	<g>
		<path class="st35" d="M162.07,265.33c-2.05,1.41-2.36,2.02-1.77,3.69c0.59,1.67,5.22,9.26,5.81,9.55c0.59,0.3,2.49-0.09,2.68-1.2
			c0.24-1.46-4.39-10.48-4.39-10.48S163.62,264.27,162.07,265.33z"/>
	</g>
	<g>
		<path class="st36" d="M166.9,281.38l2.71-1.32c0,0,2.91,6.81,4.67,7.57C174.28,287.63,168.23,283.91,166.9,281.38z"/>
	</g>
	<g>
		<polygon class="st3" points="168.69,279.11 179.59,271.88 165.88,272.68 177.36,266.12 162.29,264.49 174.4,259.83 174.76,260.77 
			166.51,263.94 180.54,265.45 170.08,271.43 183.23,270.66 173.54,277.09 183.55,275.03 183.75,276.01 		"/>
	</g>
	<g>
		<path class="st37" d="M180.03,251.51"/>
	</g>
	<g>
		<path class="st3" d="M174.68,260.83l-1.12-0.23c-2.76-1.09-7.13-3.72-7.49-6.23c-0.08-0.59,0.02-1.46,1-2.23
			c0.66-0.52,1.41-0.7,2.22-0.54c1.89,0.36,3.72,2.58,4.71,4c0.35-1.97,1.13-3.38,2.32-4.2c1.78-1.23,3.78-0.64,3.87-0.62l0.2,0.11
			c0.76,0.7,1.09,1.54,1,2.5c-0.32,3.42-6.28,7.19-6.53,7.35L174.68,260.83z M168.74,252.53c-0.38,0-0.73,0.13-1.06,0.39
			c-0.5,0.39-0.7,0.8-0.62,1.3c0.27,1.87,4.12,4.35,6.79,5.42l0.63,0.13c1.72-1.11,5.68-4.14,5.9-6.49c0.06-0.6-0.14-1.12-0.6-1.59
			c-0.39-0.08-1.74-0.3-2.91,0.52c-1.19,0.83-1.88,2.45-2.05,4.83l-0.12,1.62l-0.81-1.41c-0.68-1.18-2.88-4.33-4.79-4.69
			C168.97,252.54,168.86,252.53,168.74,252.53z"/>
	</g>
	<g>
		<path class="st38" d="M72.96,155.01c0,0-19.76,94.18,98.09,30.09c0,0-11.26,19.98-5.74,34.46c0,0,2.76,10.34,17.46,10.34
			c0,0,26.65-2.53,42.04-41.35s12.17-60.18-13.78-59.04c-25.96,1.15-65.01,9.19-65.01,9.19L72.96,155.01z"/>
	</g>
	<g>
		<path class="st21" d="M118.94,205.98c0,0,37.26-13.78,61.09-42.21l-9.76,22.31C170.27,186.08,143.58,201.68,118.94,205.98z"/>
	</g>
	<g>
		<path class="st39" d="M170.05,225.96l-0.89-0.46c0.23-0.45,23.44-45.64,30.62-69.22c1.32-4.33,1.1-7.28-0.65-9.03
			c-5.3-5.27-24.23,0.62-46.16,7.44c-8.31,2.58-16.9,5.25-25.62,7.62c-15.64,4.23-28.03,3.74-36.82-1.45
			c-8.31-4.91-10.17-12.2-10.25-12.5l0.97-0.24c0.02,0.07,1.85,7.21,9.81,11.9c8.55,5.04,20.67,5.49,36.03,1.33
			c8.71-2.36,17.29-5.03,25.59-7.61c23.15-7.2,41.43-12.88,47.16-7.19c2.05,2.03,2.34,5.32,0.91,10.03
			C193.53,180.24,170.29,225.51,170.05,225.96z"/>
	</g>
	<g>
		<path class="st0" d="M125.48,365.81c-6.22,0-12.61-1.33-17.7-3.88c-3.36-1.69-5.77-4.74-6.77-8.59c-1.18-4.51-0.33-9.5,2.27-13.35
			c2.16-3.19,6-5.11,9.79-4.86l-0.06,1c-3.45-0.21-6.94,1.52-8.9,4.43c-2.44,3.62-3.24,8.31-2.13,12.54
			c0.94,3.57,3.16,6.39,6.26,7.95c8.23,4.13,19.99,4.97,28.61,2.05c4.64-1.57,9-4.1,11.89-5.86c7.77-4.75,12.34-10.04,13.99-16.18
			c1.86-6.91-1.24-14.55-9.2-22.7c-9.13-9.34-20.44-16.32-31.23-22.66c-12-7.04-24.58-13.52-36.75-19.79l-6.67-3.43
			c-10.21-5.24-20.77-10.67-30.61-16.92c-20.12-12.79-29.08-22.21-27.41-28.79c1.5-5.93,11.52-9.35,31.52-10.75
			c6.36-0.45,9.98-1.94,10.76-4.44c1.88-6.04-12.42-17.45-21.88-25c-3.27-2.61-6.09-4.86-7.82-6.52
			c-9.27-8.88-0.14-20.94-0.05-21.06l0.79,0.61c-0.02,0.03-2.23,2.92-3.32,6.8c-1.44,5.12-0.34,9.47,3.27,12.92
			c1.69,1.62,4.5,3.86,7.75,6.46c10.25,8.18,24.29,19.39,22.21,26.08c-0.93,2.98-4.74,4.66-11.64,5.14
			c-12.28,0.86-28.81,2.83-30.62,10c-1.53,6.03,7.55,15.35,26.98,27.7c9.8,6.23,20.34,11.64,30.53,16.88l6.67,3.43
			c12.18,6.27,24.78,12.76,36.8,19.82c10.86,6.38,22.23,13.39,31.44,22.82c8.23,8.42,11.41,16.38,9.45,23.66
			c-1.72,6.4-6.44,11.88-14.44,16.77c-2.92,1.79-7.36,4.35-12.09,5.96C133.63,365.23,129.59,365.81,125.48,365.81z"/>
	</g>
	<g>
		<path class="st40" d="M105.72,144.92c-4.82,1.7-12.75,15.44-12.75,15.44c-17.57,23.95-41.52,19.98-47.33,16.07
			c-5.35-4.41-10.03-8.28-13.42-12.89c-3.98-5.4-6.18-11.83-5.57-21.31c1.14-17.58,22.82-28.2,32.73-28.63
			c9.92-0.42,24.94-11.12,24.94-11.12c21.68-23.31,42.9-14.67,42.9-14.67c-30.62,16.47-23.57,30.49-22.09,30.67
			c1.48,0.17,5.92,2,5.83,3.31c-0.08,1.31,0.85,3.29,2.13,4c1.27,0.71,14.13-2.98,14.13-2.98
			C136.81,142.23,110.54,143.22,105.72,144.92z"/>
	</g>
	<g>
		<path class="st41" d="M105.72,144.92c-4.82,1.7-12.75,15.44-12.75,15.44c-17.57,23.95-41.52,19.98-47.33,16.07
			c-5.35-4.41-10.03-8.28-13.42-12.89c7.39,3.96,29.91,13.95,45.27-1.4c18.6-18.61,16.31-24.27,23.99-26.16
			c7.69-1.89,27.34-1.4,25.74-13.17C136.81,142.23,110.54,143.22,105.72,144.92z"/>
	</g>
	<g>
		<polygon class="st42" points="68.22,144.98 58.4,152.06 47.43,139.93 55.66,135.45 		"/>
	</g>
	<g>
		<polygon class="st43" points="52.38,139.07 221.13,46.11 218.22,42.91 248.18,29.24 254.44,36.8 227.82,54.99 225.34,51.93 
			59.07,146.49 		"/>
	</g>
	<g>
		
			<rect x="41.14" y="91.12" transform="matrix(0.8742 -0.4855 0.4855 0.8742 -26.6585 80.3302)" class="st44" width="201.18" height="1"/>
	</g>
	<g>
		
			<rect x="42.22" y="90.78" transform="matrix(0.8704 -0.4923 0.4923 0.8704 -25.8892 84.2163)" class="st44" width="209.61" height="1"/>
	</g>
	<g>
		
			<rect x="43.8" y="90.96" transform="matrix(0.87 -0.4931 0.4931 0.87 -25.3911 86.6299)" class="st44" width="215.54" height="1"/>
	</g>
	<g>
		<path class="st45" d="M228.6,35.79l-3.85,1.7c-0.6,0.26-1.3-0.01-1.56-0.61v0c-0.26-0.6,0.01-1.3,0.61-1.56l3.85-1.7
			c0.6-0.26,1.3,0.01,1.56,0.61l0,0C229.47,34.83,229.2,35.53,228.6,35.79z"/>
	</g>
	<g>
		<path class="st45" d="M236.23,32.46l-3.92,1.55c-0.61,0.24-1.3-0.06-1.54-0.67v0c-0.24-0.61,0.06-1.3,0.67-1.54l3.92-1.55
			c0.61-0.24,1.3,0.06,1.54,0.67v0C237.13,31.53,236.83,32.22,236.23,32.46z"/>
	</g>
	<g>
		<path class="st45" d="M243.53,29.19l-3.92,1.55c-0.61,0.24-1.3-0.06-1.54-0.67l0,0c-0.24-0.61,0.06-1.3,0.67-1.54l3.92-1.55
			c0.61-0.24,1.3,0.06,1.54,0.67v0C244.43,28.26,244.14,28.95,243.53,29.19z"/>
	</g>
	<g>
		
			<rect x="226.7" y="36.45" transform="matrix(0.8937 -0.4486 0.4486 0.8937 7.2482 105.9384)" class="st45" width="1" height="2.45"/>
	</g>
	<g>
		
			<rect x="234.33" y="32.94" transform="matrix(0.8981 -0.4398 0.4398 0.8981 8.9374 106.7585)" class="st45" width="1" height="2.3"/>
	</g>
	<g>
		
			<rect x="241.53" y="29.77" transform="matrix(0.9224 -0.3863 0.3863 0.9224 6.8676 95.8972)" class="st45" width="1" height="2.19"/>
	</g>
	<g>
		<circle class="st46" cx="229.67" cy="42.78" r="1.42"/>
	</g>
	<g>
		<circle class="st46" cx="54.52" cy="140.04" r="1.01"/>
	</g>
	<g>
		<circle class="st46" cx="56.25" cy="142.5" r="1.01"/>
	</g>
	<g>
		<circle class="st46" cx="58.05" cy="144.51" r="1.01"/>
	</g>
	<g>
		<circle class="st46" cx="238.27" cy="39.72" r="1.42"/>
	</g>
	<g>
		<circle class="st46" cx="245.32" cy="38.3" r="1.42"/>
	</g>
	<g>
		<path class="st47" d="M93.84,102.16l1.9-1.02c0,0,9.4-2.67,10-2.9c0.59-0.24,3.5-1.39,5.79,0.43c2.29,1.83,9.01,6.35,9.31,6.76
			c0.3,0.42,0.36,2.56-2.08,2.2c0,0,1.25,2.26,0.42,3.09s-2.74,0.54-2.74,0.54s2.2,3.09-2.74,2.74c0,0,0.06,2.74-3.81,2.62
			s-13.24-2.13-13.24-2.13L93.84,102.16z"/>
	</g>
	<g>
		<path class="st48" d="M118.24,107.78c-0.08,0-0.15-0.02-0.23-0.05l-7.6-3.85c-0.25-0.12-0.34-0.43-0.22-0.67
			c0.12-0.25,0.43-0.35,0.67-0.22l7.6,3.85c0.25,0.12,0.34,0.43,0.22,0.67C118.6,107.68,118.42,107.78,118.24,107.78z"/>
	</g>
	<g>
		<path class="st48" d="M116.85,111.52c-0.06,0-0.12-0.01-0.17-0.03l-6.89-2.57c-0.26-0.1-0.39-0.38-0.29-0.64s0.38-0.39,0.64-0.29
			l6.89,2.57c0.26,0.1,0.39,0.38,0.29,0.64C117.24,111.4,117.05,111.52,116.85,111.52z"/>
	</g>
	<g>
		<path class="st48" d="M113.4,114.84c-0.05,0-0.11-0.01-0.16-0.03l-6.4-2.14c-0.26-0.09-0.4-0.37-0.32-0.63
			c0.09-0.26,0.37-0.4,0.63-0.32l6.4,2.14c0.26,0.09,0.4,0.37,0.32,0.63C113.81,114.71,113.61,114.84,113.4,114.84z"/>
	</g>
	<g>
		<path class="st49" d="M178.65,70.28l7.84-3.82c0,0,2.71-2.61,6.03-2.11c0,0,3.32-2.51,4.72,0.6c1.41,3.11,6.43,9.14-0.7,14.27
			c-7.13,5.12-7.22,4.96-9.64,7.5s-12.06-3.19-12.06-3.19l-0.07-1.3c0,0-0.13-2.31,1.78-2.82c1.91-0.5,7.94-3.01,8.14-6.13
			c0,0-4.82,1.31-6.03,0.2l1.51-1.41C180.15,72.09,177.64,71.48,178.65,70.28z"/>
	</g>
	<g>
		<path class="st50" d="M96.65,114.48l-7.21,0.77c0,0-27.55,19.78-60.61,18.51l11.71-36.14c0,0,28.3,2.55,44.73,3.36
			c4.9,0.25,8.73,0.34,10.46,0.16C95.73,101.14,98.49,110.19,96.65,114.48z"/>
	</g>
	<g>
		<path class="st17" d="M96.65,114.48l-7.21,0.77c2.09-9.16-4.17-14.27-4.17-14.27c4.9,0.25,8.73,0.34,10.46,0.16
			C95.73,101.14,98.49,110.19,96.65,114.48z"/>
	</g>
	<g>
		<path class="st14" d="M87.95,104.34c0,0,0.48,5.13-4.58,10s-41.84,27.18-64.85,9.45c0,0,3.03,8.04,10.31,9.97
			c0,0,30.96,2.41,60.61-18.51C89.44,115.25,91.59,109.18,87.95,104.34z"/>
	</g>
	<g>
		<path class="st15" d="M85.27,101.48c-0.01,0-0.02,0-0.04,0l-46.95-3.32c-0.28-0.02-0.48-0.26-0.46-0.53s0.26-0.49,0.53-0.46
			l46.95,3.32c0.28,0.02,0.48,0.26,0.46,0.53C85.75,101.28,85.53,101.48,85.27,101.48z"/>
	</g>
	<g>
		<path class="st51" d="M90.3,78.19c0,0-6.07,15.69-14.19,21.81l9.87,0.77C85.97,100.77,92.06,82.23,90.3,78.19z"/>
	</g>
	<g>
		<path class="st15" d="M75.92,98.97c-0.05,0-0.1-0.01-0.15-0.02c-0.26-0.08-0.41-0.37-0.32-0.63c3.5-10.97,2.61-20.7-2.58-28.13
			c-3.93-5.63-8.97-8.02-9.02-8.04c-0.25-0.12-0.36-0.41-0.24-0.66c0.12-0.25,0.41-0.36,0.66-0.24c0.21,0.1,20.86,10.02,12.13,37.38
			C76.33,98.83,76.13,98.97,75.92,98.97z"/>
	</g>
	<g>
		<path class="st15" d="M76.11,100.19c-0.14,0-0.28-0.06-0.38-0.18c-0.18-0.21-0.15-0.53,0.06-0.71
			c6.63-5.61,13.83-20.64,13.9-20.79c0.12-0.25,0.42-0.36,0.67-0.24c0.25,0.12,0.36,0.42,0.24,0.67
			c-0.3,0.62-7.36,15.38-14.16,21.13C76.34,100.15,76.22,100.19,76.11,100.19z"/>
	</g>
	<g>
		<path class="st48" d="M196.42,72.16c-0.18,0-0.36-0.1-0.45-0.27l-3.92-7.74c-0.12-0.25-0.03-0.55,0.22-0.67
			c0.25-0.12,0.55-0.03,0.67,0.22l3.92,7.74c0.12,0.25,0.03,0.55-0.22,0.67C196.57,72.15,196.49,72.16,196.42,72.16z"/>
	</g>
	<g>
		<path class="st48" d="M193.2,74.37c-0.2,0-0.39-0.12-0.47-0.32c-0.01-0.03-1.31-3.41-2.78-6.01c-1.27-2.25-3.71-1.37-3.81-1.34
			c-0.26,0.09-0.54-0.03-0.64-0.29c-0.1-0.26,0.03-0.54,0.29-0.64c1.15-0.44,3.68-0.62,5.04,1.78c1.51,2.67,2.79,6.01,2.84,6.15
			c0.1,0.26-0.03,0.55-0.29,0.65C193.32,74.36,193.26,74.37,193.2,74.37z"/>
	</g>
	<g>
		<path class="st48" d="M189.12,75.21c0,0-1.21-2.84-1.91-4.45c-0.18-0.42-0.46-0.67-0.86-0.78c-0.77-0.21-1.89,0.16-3,0.98
			c-2.01,1.48-3.08,1.24-3.27,1.18c-0.26-0.09-0.4-0.37-0.32-0.63c0.09-0.26,0.36-0.4,0.61-0.32c0.05,0.01,0.82,0.13,2.38-1.03
			c1.38-1.01,2.78-1.43,3.86-1.14c0.69,0.19,1.22,0.65,1.52,1.34c0.7,1.61,1.91,4.46,1.91,4.46L189.12,75.21z"/>
	</g>
	<g>
		<ellipse class="st52" cx="41.03" cy="395.81" rx="16.35" ry="4.33"/>
	</g>
	<g>
		
			<rect x="33.92" y="89.49" transform="matrix(0.4893 -0.8721 0.8721 0.4893 -53.2347 89.0821)" class="st0" width="31.05" height="1"/>
	</g>
	<g>
		<polygon class="st52" points="70.05,74.49 33.73,116.09 36,117.76 74.84,73.9 		"/>
	</g>
	<g>
		<rect x="39.34" y="102.46" class="st52" width="3.47" height="292.52"/>
	</g>
	<g>
		<path class="st53" d="M57.27,73.34l27.25-5.3v5.26l-26.54,4.14c-1.03,0.16-2.01-0.46-2.32-1.45l0,0
			C55.31,74.81,56.06,73.57,57.27,73.34z"/>
	</g>
	<g>
		<circle class="st54" cx="87.51" cy="70.24" r="6.21"/>
	</g>
</g>
</svg>
