<?xml version="1.0" encoding="iso-8859-1"?>
<!-- Generator: Adobe Illustrator 19.0.0, SVG Export Plug-In . SVG Version: 6.00 Build 0)  -->
<svg version="1.1" id="Layer_1" xmlns="http://www.w3.org/2000/svg" xmlns:xlink="http://www.w3.org/1999/xlink" x="0px" y="0px"
	 viewBox="0 0 496 496" style="enable-background:new 0 0 496 496;" xml:space="preserve">
<path style="fill:#333333;" d="M496,248c0,136.8-111.2,248-248,248S0,384.8,0,248S111.2,0,248,0S496,111.2,496,248z"/>
<path d="M248,0c136.8,0,248,111.2,248,248S384.8,496,248,496"/>
<path style="fill:#232322;" d="M72.8,72.8c96.8-96.8,253.6-96.8,350.4,0s96.8,253.6,0,350.4"/>
<path d="M176.8,360.8c-1.6,0-2.4-0.8-4-1.6c-4-1.6-4.8-5.6-4.8-10.4V199.2c0-4,1.6-8.8,4.8-10.4c4-1.6,8-1.6,11.2,0.8l101.6,75.2
	c3.2,2.4,4.8,5.6,4.8,9.6s-1.6,7.2-4.8,9.6L184,358.4C181.6,360,179.2,360.8,176.8,360.8z"/>
<path d="M308,194.4c-12,0-20,9.6-20,21.6v116c0,12,8,21.6,20,21.6s20-9.6,20-21.6V216C328,204,320,194.4,308,194.4z"/>
<g>
	<path style="fill:#FFFFFF;" d="M176.8,334.4c-1.6,0-3.2,0-5.6-0.8c-3.2-1.6-3.2-6.4-3.2-10.4V172.8c0-4,1.6-8.8,4.8-10.4
		c4-1.6,8-1.6,11.2,0.8l101.6,75.2c3.2,2.4,4.8,5.6,4.8,9.6c0,4-1.6,7.2-4.8,9.6l-94.4,69.6C189.6,328.8,180.8,334.4,176.8,334.4z"
		/>
	<path style="fill:#FFFFFF;" d="M308,168.8c-12,0-20,9.6-20,21.6v116c0,12,8,21.6,20,21.6s20-9.6,20-21.6V189.6
		C328,178.4,320,168.8,308,168.8z"/>
</g>
<g>
</g>
<g>
</g>
<g>
</g>
<g>
</g>
<g>
</g>
<g>
</g>
<g>
</g>
<g>
</g>
<g>
</g>
<g>
</g>
<g>
</g>
<g>
</g>
<g>
</g>
<g>
</g>
<g>
</g>
</svg>
