<?xml version="1.0" encoding="iso-8859-1"?>
<!-- Generator: Adobe Illustrator 19.0.0, SVG Export Plug-In . SVG Version: 6.00 Build 0)  -->
<svg version="1.1" id="Layer_1" xmlns="http://www.w3.org/2000/svg" xmlns:xlink="http://www.w3.org/1999/xlink" x="0px" y="0px"
	 viewBox="0 0 512 512" style="enable-background:new 0 0 512 512;" xml:space="preserve">
<g>
	<path style="fill:#FF52A0;" d="M156.523,385.842h281.791c10.221,0,18.507-8.286,18.507-18.507c0-10.221-8.286-18.507-18.507-18.507
		H156.523c-65.898,0-119.51-53.611-119.51-119.51s53.611-119.511,119.51-119.511h81.423c10.221,0,18.507-8.286,18.507-18.507
		s-8.286-18.507-18.507-18.507h-81.423C70.215,72.795,0,143.011,0,229.319S70.215,385.842,156.523,385.842z"/>
	<path style="fill:#FF52A0;" d="M418.076,298.81l81.565,47.092c16.465,9.506,16.492,33.348,0,42.869l-81.565,47.091
		c-16.464,9.506-37.126-2.39-37.126-21.434v-94.183C380.952,301.232,401.586,289.288,418.076,298.81z"/>
</g>
<g>
	<path style="fill:#FF90C2;" d="M320.319,109.808h60.632c10.221,0,18.507-8.286,18.507-18.507s-8.286-18.507-18.507-18.507h-60.632
		c-10.221,0-18.507,8.286-18.507,18.507C301.813,101.522,310.099,109.808,320.319,109.808z"/>
	<path style="fill:#FF90C2;" d="M156.523,72.795h81.423c10.221,0,18.507,8.286,18.507,18.507s-8.286,18.507-18.507,18.507h-81.423
		c-65.898,0-119.51,53.613-119.51,119.511S90.625,348.83,156.523,348.83h108.739v37.013H156.523C70.215,385.842,0,315.627,0,229.319
		S70.215,72.795,156.523,72.795z"/>
</g>
<g>
</g>
<g>
</g>
<g>
</g>
<g>
</g>
<g>
</g>
<g>
</g>
<g>
</g>
<g>
</g>
<g>
</g>
<g>
</g>
<g>
</g>
<g>
</g>
<g>
</g>
<g>
</g>
<g>
</g>
</svg>
