<?xml version="1.0" standalone="no"?>
<!DOCTYPE svg PUBLIC "-//W3C//DTD SVG 20010904//EN"
 "http://www.w3.org/TR/2001/REC-SVG-20010904/DTD/svg10.dtd">
<svg version="1.0" xmlns="http://www.w3.org/2000/svg"
 width="1280.000000pt" height="1036.000000pt" viewBox="0 0 1280.000000 1036.000000"
 preserveAspectRatio="xMidYMid meet">
<metadata>
Created by potrace 1.16, written by Peter Selinger 2001-2019
</metadata>
<g transform="translate(0.000000,1036.000000) scale(0.100000,-0.100000)"
fill="#000000" stroke="none">
<path d="M2037 9950 c-219 -28 -377 -243 -346 -470 19 -134 105 -253 228 -313
l66 -32 4210 0 4210 0 66 32 c41 21 85 53 118 88 234 247 90 652 -247 696 -81
10 -8222 10 -8305 -1z"/>
<path d="M2010 8306 c-213 -46 -349 -245 -319 -466 22 -156 125 -278 277 -329
l61 -21 4166 0 4166 0 61 21 c240 81 348 341 239 575 -54 115 -165 199 -295
223 -90 17 -8280 14 -8356 -3z"/>
<path d="M1990 6664 c-156 -42 -277 -177 -299 -336 -26 -186 61 -354 227 -435
l76 -38 1305 -3 c1466 -3 1375 -8 1492 70 156 105 220 318 149 501 -43 113
-172 220 -298 246 -37 8 -430 11 -1325 10 -1087 0 -1280 -2 -1327 -15z"/>
<path d="M7265 6259 c-467 -59 -866 -389 -1013 -839 -58 -174 -55 -130 -59
-1112 l-4 -907 -612 -4 c-581 -3 -617 -4 -702 -25 -140 -32 -240 -69 -366
-133 -146 -76 -260 -161 -379 -286 -191 -199 -311 -429 -371 -713 -29 -137
-31 -389 -5 -525 89 -466 371 -841 781 -1041 246 -119 434 -153 840 -153 407
0 613 38 850 157 400 200 661 542 768 1005 21 91 21 104 27 1767 l5 1675 22
55 c42 102 131 191 233 232 54 22 67 23 560 28 l505 5 67 32 c131 62 216 174
240 315 27 164 -58 344 -200 421 -101 55 -124 57 -642 56 -261 -1 -506 -6
-545 -10z m-1075 -4021 c0 -253 -4 -350 -15 -402 -45 -214 -221 -399 -440
-461 -89 -26 -534 -33 -660 -11 -234 40 -422 208 -491 441 -26 88 -25 239 4
330 48 155 160 290 300 363 135 71 131 70 750 71 l552 1 0 -332z"/>
<path d="M1989 5026 c-158 -44 -275 -177 -298 -338 -23 -169 51 -332 190 -415
111 -66 41 -63 1449 -63 823 0 1291 4 1319 11 123 28 248 134 291 246 85 221
-21 464 -240 550 -42 17 -126 18 -1355 20 -1038 1 -1320 -1 -1356 -11z"/>
<path d="M9348 4611 c-120 -39 -202 -112 -255 -227 l-28 -59 -3 -462 -3 -462
-462 -3 -462 -3 -70 -34 c-87 -43 -152 -108 -195 -194 -62 -127 -50 -295 30
-412 63 -91 160 -154 270 -175 30 -6 232 -10 471 -10 l419 0 0 -438 c0 -474 2
-495 56 -588 35 -59 115 -131 179 -160 249 -114 535 33 584 300 7 37 11 216
11 473 l0 413 413 0 c256 0 436 4 473 11 221 41 364 242 333 469 -20 137 -99
244 -227 307 l-76 38 -458 3 -458 3 0 412 c0 227 -5 439 -10 472 -22 134 -109
248 -236 307 -86 40 -209 48 -296 19z"/>
</g>
</svg>
