<?xml version="1.0" standalone="no"?>
<!DOCTYPE svg PUBLIC "-//W3C//DTD SVG 20010904//EN"
 "http://www.w3.org/TR/2001/REC-SVG-20010904/DTD/svg10.dtd">
<svg version="1.0" xmlns="http://www.w3.org/2000/svg"
 width="1280.000000pt" height="836.000000pt" viewBox="0 0 1280.000000 836.000000"
 preserveAspectRatio="xMidYMid meet">
<metadata>
Created by potrace 1.16, written by Peter Selinger 2001-2019
</metadata>
<g transform="translate(0.000000,836.000000) scale(0.100000,-0.100000)"
fill="#000000" stroke="none">
<path d="M3558 7260 c-111 -19 -229 -103 -282 -200 -119 -219 -39 -474 182
-582 l67 -33 2670 0 2670 0 67 33 c160 78 248 232 235 410 -14 183 -154 338
-336 372 -65 12 -5201 12 -5273 0z"/>
<path d="M3541 5515 c-119 -26 -227 -113 -278 -223 -99 -212 -15 -451 194
-554 l68 -33 2670 0 2670 0 67 32 c356 168 296 697 -88 778 -101 21 -5205 21
-5303 0z"/>
<path d="M3573 3779 c-224 -29 -384 -250 -346 -475 24 -137 107 -249 230 -307
l68 -32 1135 0 1135 0 68 33 c255 126 314 460 116 663 -60 62 -155 108 -247
120 -84 11 -2075 9 -2159 -2z"/>
<path d="M7392 3662 c-238 -85 -346 -351 -236 -581 22 -45 84 -113 313 -343
l285 -288 -285 -287 c-311 -314 -330 -338 -352 -467 -30 -179 65 -360 230
-439 64 -30 74 -32 183 -32 178 0 175 -2 525 346 l290 289 280 -281 c254 -254
287 -283 354 -317 73 -36 78 -37 185 -37 104 0 115 2 178 32 210 99 295 348
192 561 -22 46 -82 112 -313 345 l-285 287 286 288 c190 190 293 302 308 332
110 218 27 472 -188 573 -63 30 -74 32 -177 32 -104 0 -114 -2 -180 -33 -63
-30 -97 -61 -355 -317 l-285 -284 -285 284 c-259 257 -292 287 -355 317 -61
28 -82 33 -165 35 -73 3 -107 -1 -148 -15z"/>
<path d="M3485 2015 c-79 -32 -132 -72 -178 -131 -103 -135 -113 -324 -24
-473 41 -68 95 -115 177 -155 l65 -31 1135 0 1135 0 66 31 c166 79 263 264
230 441 -26 140 -107 248 -228 306 l-68 32 -1125 2 -1125 3 -60 -25z"/>
</g>
</svg>
