<?xml version="1.0" encoding="iso-8859-1"?>
<!-- Generator: Adobe Illustrator 19.0.0, SVG Export Plug-In . SVG Version: 6.00 Build 0)  -->
<svg version="1.1" id="Layer_1" xmlns="http://www.w3.org/2000/svg" xmlns:xlink="http://www.w3.org/1999/xlink" x="0px" y="0px"
	 viewBox="0 0 512 512" style="enable-background:new 0 0 512 512;" xml:space="preserve">
<circle style="fill:#FFFFFF;" cx="224" cy="400" r="96"/>
<circle style="fill:#FAA85F;" cx="224" cy="400" r="48"/>
<g>
	<path style="fill:#00384E;" d="M464,32V0H304v80v32v209.776C283.648,300.96,255.328,288,224,288c-61.76,0-112,50.256-112,112
		s50.24,112,112,112s112-50.256,112-112V112h128V80H336V32H464z M224,480c-44.112,0-80-35.888-80-80s35.888-80,80-80
		s80,35.888,80,80S268.112,480,224,480z"/>
	<rect x="48" y="32" style="fill:#00384E;" width="192" height="32"/>
	<rect x="48" y="96" style="fill:#00384E;" width="192" height="32"/>
	<rect x="48" y="160" style="fill:#00384E;" width="192" height="32"/>
</g>
<g>
</g>
<g>
</g>
<g>
</g>
<g>
</g>
<g>
</g>
<g>
</g>
<g>
</g>
<g>
</g>
<g>
</g>
<g>
</g>
<g>
</g>
<g>
</g>
<g>
</g>
<g>
</g>
<g>
</g>
</svg>
