<?xml version="1.0" encoding="iso-8859-1"?>
<!-- Generator: Adobe Illustrator 19.0.0, SVG Export Plug-In . SVG Version: 6.00 Build 0)  -->
<svg version="1.1" id="Layer_1" xmlns="http://www.w3.org/2000/svg" xmlns:xlink="http://www.w3.org/1999/xlink" x="0px" y="0px"
	 viewBox="0 0 249.182 249.182" style="enable-background:new 0 0 249.182 249.182;" xml:space="preserve">
<g>
	<g>
		<g>
			<path style="fill:#4EFFBB;" d="M240.389,82.377c-1.479-3.67-5.587-5.45-9.175-3.944c-3.615,1.479-5.341,5.669-3.889,9.34
				c0.192,0.438,17.2,44.288-0.027,88.85c-1.424,3.67,0.356,7.833,3.971,9.285c0.849,0.329,1.725,0.493,2.575,0.493
				c2.821,0,5.478-1.725,6.573-4.547C259.753,131.814,241.183,84.349,240.389,82.377z"/>
			<path style="fill:#4EFFBB;" d="M202.126,96.208c-3.615,1.479-5.341,5.669-3.862,9.34c0.11,0.274,10.326,26.43-0.027,53.299
				c-1.424,3.67,0.356,7.833,3.971,9.285c0.849,0.329,1.725,0.493,2.575,0.493c2.821,0,5.478-1.725,6.573-4.547
				c12.407-32.127,0.466-62.666-0.055-63.926C209.85,96.482,205.742,94.702,202.126,96.208z"/>
			<path style="fill:#4EFFBB;" d="M179.777,61.506c-1.862-1.096-4.108-1.287-6.108-0.493L80.164,97.797
				c-2.712,1.068-4.492,3.67-4.519,6.601l-0.575,58.749c-0.055,2.931,1.698,5.587,4.355,6.71l92.739,38.728
				c0.876,0.356,1.78,0.548,2.684,0.548c1.205,0,2.41-0.329,3.478-0.931c1.89-1.096,3.177-3.013,3.506-5.176
				c6.792-46.232,7.258-92.081,1.342-136.315C182.899,64.547,181.64,62.629,179.777,61.506z"/>
			<path style="fill:#4EFFBB;" d="M59.759,99.522l-10.983-0.137c-0.11,0-0.219,0-0.356,0c-17.885,0-32.565,14.735-32.757,32.976
				v1.643c-0.192,18.378,14.352,33.497,32.428,33.661l10.983,0.137c0.027,0,0.055,0,0.082,0c1.835,0,3.615-0.74,4.93-2.054
				c1.342-1.342,2.109-3.15,2.109-5.04l0.548-53.956C66.771,102.782,63.648,99.55,59.759,99.522z"/>
		</g>
		<g>
			<g id="XMLID_16_">
				<g>
					<path style="fill:#302C58;" d="M36.922,93.286l-0.411,39.632l-3.944-0.055c-10.298-0.11-18.57-8.71-18.46-19.172v-1.643
						c0.055-5.067,2.054-9.833,5.615-13.366c3.506-3.506,8.135-5.423,13.037-5.423c0.082,0,0.137,0,0.219,0L36.922,93.286z"/>
					<path style="fill:#302C58;" d="M154.667,57.215c4.19,37.167,3.807,75.456-1.205,114.13l-79.921-33.387l0.493-49.026
						L154.667,57.215z"/>
					<path style="fill:#222051;" d="M223.347,90.128L223.347,90.128c4.47,0,7.858-4.092,6.96-8.471
						c-2.386-11.624-5.278-19.008-5.582-19.761c-1.479-3.67-5.587-5.45-9.175-3.944c-3.615,1.479-5.341,5.669-3.889,9.34
						c0.074,0.167,2.61,6.71,4.746,17.214C217.078,87.789,219.998,90.128,223.347,90.128z"/>
					<path style="fill:#222051;" d="M226.251,99.018c-4.018,0-7.277,3.336-7.08,7.348c0.726,14.735-0.737,32.196-7.535,49.774
						c-1.424,3.67,0.356,7.833,3.971,9.285c0.849,0.329,1.725,0.493,2.575,0.493c2.821,0,5.478-1.726,6.573-4.547
						c7.674-19.857,9.37-39.298,8.584-55.66C233.155,101.952,230.017,99.018,226.251,99.018L226.251,99.018z"/>
					<path style="fill:#222051;" d="M195.641,79.674c0.52,1.26,12.462,31.799,0.055,63.926c-1.096,2.821-3.752,4.547-6.573,4.547
						c-0.849,0-1.725-0.164-2.575-0.493c-3.615-1.452-5.396-5.615-3.971-9.285c10.353-26.868,0.137-53.025,0.027-53.299
						c-1.479-3.67,0.246-7.861,3.862-9.34C190.081,74.223,194.189,76.003,195.641,79.674z"/>
					<path style="fill:#222051;" d="M167.512,46.232c5.916,44.233,5.45,90.082-1.342,136.315c-0.329,2.164-1.616,4.081-3.506,5.176
						c-1.068,0.603-2.273,0.931-3.478,0.931c-0.904,0-1.808-0.192-2.684-0.548l-92.739-38.728c-2.657-1.123-4.41-3.78-4.355-6.71
						l0.575-58.749c0.027-2.931,1.808-5.533,4.519-6.601l93.506-36.783c1.999-0.794,4.245-0.603,6.108,0.493
						C165.979,42.151,167.238,44.068,167.512,46.232z M153.462,171.344c5.012-38.673,5.396-76.963,1.205-114.129L74.034,88.931
						l-0.493,49.026L153.462,171.344z"/>
					<path style="fill:#222051;" d="M44.098,79.044c3.889,0.027,7.012,3.259,6.984,7.231l-0.548,53.956
						c0,1.89-0.767,3.697-2.109,5.04c-1.315,1.315-3.095,2.054-4.93,2.054c-0.027,0-0.055,0-0.082,0l-10.983-0.137
						c-18.077-0.164-32.62-15.283-32.428-33.661v-1.643c0.192-18.241,14.872-32.976,32.757-32.976c0.137,0,0.247,0,0.356,0
						L44.098,79.044z M36.511,132.918l0.411-39.632l-3.944-0.027c-0.082,0-0.137,0-0.219,0c-4.903,0-9.531,1.917-13.037,5.423
						c-3.561,3.533-5.56,8.299-5.615,13.366v1.643c-0.11,10.463,8.162,19.063,18.46,19.172L36.511,132.918z"/>
				</g>
			</g>
		</g>
	</g>
</g>
<g>
</g>
<g>
</g>
<g>
</g>
<g>
</g>
<g>
</g>
<g>
</g>
<g>
</g>
<g>
</g>
<g>
</g>
<g>
</g>
<g>
</g>
<g>
</g>
<g>
</g>
<g>
</g>
<g>
</g>
</svg>
