<?xml version="1.0" encoding="iso-8859-1"?>
<!-- Generator: Adobe Illustrator 19.0.0, SVG Export Plug-In . SVG Version: 6.00 Build 0)  -->
<svg version="1.1" id="Layer_1" xmlns="http://www.w3.org/2000/svg" xmlns:xlink="http://www.w3.org/1999/xlink" x="0px" y="0px"
	 viewBox="0 0 512 512" style="enable-background:new 0 0 512 512;" xml:space="preserve">
<path style="fill:#FFCA12;" d="M117.07,354.727H40.479c-16.723,0-30.279-13.557-30.279-30.279V186.025
	c0-16.723,13.557-30.279,30.279-30.279h76.59v198.981H117.07z"/>
<polygon style="fill:#6ED3FF;" points="117.07,354.727 358.29,438.189 358.29,73.813 117.07,155.746 "/>
<polygon style="fill:#FFCA12;" points="501.801,236.661 467.195,236.661 467.195,202.057 428.518,202.057 428.518,236.661 
	393.913,236.661 393.913,275.339 428.518,275.339 428.518,309.944 467.195,309.944 467.195,275.339 501.801,275.339 "/>
<path d="M364.23,65.522c-2.674-1.915-6.105-2.424-9.221-1.367l-239.625,81.392H40.479C18.159,145.547,0,163.706,0,186.026v138.422
	c0,22.32,18.159,40.479,40.479,40.479h74.876l239.6,82.899c1.086,0.376,2.213,0.561,3.334,0.561c2.094,0,4.167-0.645,5.918-1.891
	c2.688-1.913,4.283-5.009,4.283-8.308V73.813C368.489,70.524,366.903,67.437,364.23,65.522z M20.398,324.448v-8.885h25.425
	c5.633,0,10.199-4.566,10.199-10.199s-4.566-10.199-10.199-10.199H20.398v-28.966h25.425c5.633,0,10.199-4.566,10.199-10.199
	c0-5.633-4.566-10.199-10.199-10.199H20.398v-30.492h25.425c5.633,0,10.199-4.566,10.199-10.199s-4.566-10.199-10.199-10.199H20.398
	v-8.885c0-11.072,9.008-20.08,20.08-20.08h66.391v178.583H40.479C29.406,344.528,20.398,335.52,20.398,324.448z M348.091,423.867
	l-220.822-76.402V163.054l220.822-75.006V423.867z"/>
<path d="M165.924,187.013c1.087,0,2.194-0.175,3.281-0.545l104.834-35.608c5.333-1.811,8.189-7.605,6.377-12.938
	c-1.812-5.333-7.603-8.188-12.938-6.377l-104.834,35.608c-5.333,1.811-8.189,7.605-6.377,12.938
	C157.709,184.337,161.675,187.013,165.924,187.013z"/>
<path d="M306.38,139.305c1.087,0,2.194-0.175,3.281-0.545l9.16-3.112c5.333-1.811,8.189-7.605,6.377-12.938
	c-1.812-5.333-7.604-8.186-12.938-6.377l-9.16,3.112c-5.333,1.811-8.189,7.605-6.377,12.938
	C298.167,136.63,302.132,139.305,306.38,139.305z"/>
<path d="M501.801,226.462h-24.407v-24.406c0-5.633-4.566-10.199-10.199-10.199h-38.676c-5.633,0-10.199,4.566-10.199,10.199v24.406
	h-24.406c-5.633,0-10.199,4.566-10.199,10.199v38.677c0,5.633,4.566,10.199,10.199,10.199h24.406v24.406
	c0,5.633,4.566,10.199,10.199,10.199h38.676c5.633,0,10.199-4.566,10.199-10.199v-24.406h24.407c5.633,0,10.199-4.566,10.199-10.199
	v-38.677C512,231.028,507.434,226.462,501.801,226.462z M491.602,265.14h-24.407c-5.633,0-10.199,4.566-10.199,10.199v24.406
	h-18.278v-24.406c0-5.633-4.566-10.199-10.199-10.199h-24.406v-18.279h24.406c5.633,0,10.199-4.566,10.199-10.199v-24.406h18.278
	v24.406c0,5.633,4.566,10.199,10.199,10.199h24.407V265.14z"/>
<g>
</g>
<g>
</g>
<g>
</g>
<g>
</g>
<g>
</g>
<g>
</g>
<g>
</g>
<g>
</g>
<g>
</g>
<g>
</g>
<g>
</g>
<g>
</g>
<g>
</g>
<g>
</g>
<g>
</g>
</svg>
